#N canvas 1130 61 622 899 12;
#X obj 18 672 array define samplebuf;
#X obj 19 639 soundfiler;
#X obj 19 570 openpanel;
#X obj 19 545 bng 15 250 50 0 empty empty empty 17 7 0 10 -262144 -1
-1;
#X msg 19 604 read -resize \$1 samplebuf;
#X text 40 542 <-- click to load a sound file into the buffer;
#X obj 90 422 osc~ 440;
#X text 10 3 mdeGranular~ help;
#N canvas 289 82 783 365 live/static 0;
#X obj 218 267 mdeGranular~ 300 4;
#X obj 216 312 dac~ 1 2 3 4;
#X msg 52 248 on;
#X msg 88 248 off;
#X msg 114 38 RampLenMS \$1;
#X floatatom 114 15 5 0 0 0 - - -;
#X msg 143 68 MaxLiveBufferMS 60000;
#X obj 13 205 r~ mdeGranularSignal;
#X msg 154 93 SmoothMode;
#X msg 171 121 set ms100;
#X msg 179 143 set ms500;
#X msg 193 167 set ms5000;
#X msg 205 196 set samplebuf;
#X msg 5 248 print;
#X floatatom 341 179 5 0 0 0 - - -;
#X floatatom 541 167 5 0 0 0 - - -;
#X text 580 166 grain length (millisecs);
#X floatatom 541 189 5 0 0 0 - - -;
#X floatatom 541 249 5 0 0 0 - - -;
#X text 584 189 buffer start (millisecs);
#X text 583 250 buffer end (millisecs);
#X text 385 178 amplitude;
#X floatatom 341 155 5 0 0 0 - - -;
#X text 385 155 deviation (%);
#X obj 541 220 + 500;
#X floatatom 591 220 5 0 0 0 - - -;
#X connect 0 0 1 0;
#X connect 0 1 1 1;
#X connect 0 2 1 2;
#X connect 0 3 1 3;
#X connect 2 0 0 0;
#X connect 3 0 0 0;
#X connect 4 0 0 0;
#X connect 5 0 4 0;
#X connect 6 0 0 0;
#X connect 7 0 0 0;
#X connect 8 0 0 0;
#X connect 9 0 0 0;
#X connect 10 0 0 0;
#X connect 11 0 0 0;
#X connect 12 0 0 0;
#X connect 13 0 0 0;
#X connect 14 0 0 7;
#X connect 15 0 0 2;
#X connect 17 0 0 4;
#X connect 17 0 24 0;
#X connect 18 0 0 5;
#X connect 22 0 0 3;
#X connect 24 0 18 0;
#X connect 25 0 24 1;
#X restore 11 157 pd live/static;
#N canvas 889 641 705 327 mono/stereo 0;
#X obj 169 276 dac~;
#X floatatom 255 158 5 0 0 0 - - -;
#X msg 258 96 print;
#X obj 324 186 mdeGranular~ 30 2;
#X obj 169 186 mdeGranular~ 30 1;
#X obj 3 167 r~ mdeGranularSignal;
#X msg 131 125 on;
#X msg 169 126 off;
#X floatatom 474 143 5 0 0 0 - - -;
#X msg 324 99 on;
#X msg 362 100 off;
#X floatatom 305 40 5 0 0 0 - - -;
#X msg 305 72 RampLenMS \$1;
#X floatatom 434 11 5 0 0 0 - - -;
#X text 474 9 grain length (millisecs);
#X floatatom 442 36 5 0 0 0 - - -;
#X floatatom 452 62 5 0 0 0 - - -;
#X floatatom 460 92 5 0 0 0 - - -;
#X floatatom 473 116 5 0 0 0 - - -;
#X text 495 62 buffer start (millisecs);
#X text 501 91 buffer end (millisecs);
#X text 486 36 deviation (%);
#X text 516 114 density (%);
#X text 518 142 amplitude;
#X text 213 138 amplitude;
#X connect 1 0 4 7;
#X connect 2 0 3 0;
#X connect 3 0 0 0;
#X connect 3 1 0 1;
#X connect 4 0 0 0;
#X connect 4 0 0 1;
#X connect 5 0 4 0;
#X connect 5 0 3 0;
#X connect 6 0 4 0;
#X connect 7 0 4 0;
#X connect 8 0 3 7;
#X connect 9 0 3 0;
#X connect 10 0 3 0;
#X connect 11 0 12 0;
#X connect 12 0 3 0;
#X connect 13 0 3 2;
#X connect 15 0 3 3;
#X connect 16 0 3 4;
#X connect 17 0 3 5;
#X connect 18 0 3 6;
#X restore 11 133 pd mono/stereo;
#N canvas 609 469 550 411 transpositions 0;
#X obj 222 301 mdeGranular~ 300 2;
#X obj 222 335 dac~ 1 2;
#X msg 72 282 on;
#X msg 108 282 off;
#X obj 51 240 r~ mdeGranularSignal;
#X msg 25 282 print;
#X msg 194 127 -13 -7 -2 3 8 14;
#X msg 210 150 0 3 7;
#X msg 222 174 0 4 7;
#X msg 231 200 0 0;
#X msg 115 47 OctaveDivisions \$1;
#X msg 174 97 OctaveSize \$1;
#X floatatom 115 25 5 0 0 0 - - -;
#X floatatom 174 75 5 0 0 0 - - -;
#X floatatom 239 277 5 0 0 0 - - -;
#X text 237 240 semitone offset, f 8;
#X floatatom 407 283 5 0 0 0 - - -;
#X floatatom 305 275 5 0 0 0 - - -;
#X text 451 282 amplitude;
#X text 301 240 grain length (millisecs);
#X connect 0 0 1 0;
#X connect 0 1 1 1;
#X connect 2 0 0 0;
#X connect 3 0 0 0;
#X connect 4 0 0 0;
#X connect 5 0 0 0;
#X connect 6 0 0 0;
#X connect 7 0 0 0;
#X connect 8 0 0 0;
#X connect 9 0 0 0;
#X connect 10 0 0 0;
#X connect 11 0 0 0;
#X connect 12 0 10 0;
#X connect 13 0 11 0;
#X connect 14 0 0 1;
#X connect 16 0 0 7;
#X connect 17 0 0 2;
#X restore 11 182 pd transpositions;
#X text 10 96 mdeGranular~ objects are here, f 16;
#X obj 21 863 dac~;
#X obj 21 778 tabplay~ samplebuf;
#X obj 20 751 bng 15 250 50 0 empty empty empty 17 7 0 10 -262144 -1
-1;
#X msg 48 751 stop;
#X floatatom 157 812 5 0 0 0 - - -;
#X obj 20 359 openpanel;
#X obj 20 334 bng 15 250 50 0 empty empty empty 17 7 0 10 -262144 -1
-1;
#X text 41 331 <-- click to load a sound file to play as live signal
;
#X msg 92 392 1;
#X msg 135 392 0;
#X obj 20 493 send~ mdeGranularSignal;
#X obj 155 777 r~ mdeGranularSignal;
#X obj 201 364 tgl 15 0 empty empty empty 17 7 0 10 -262144 -1 -1 0
1;
#X obj 201 391 sel 1 0;
#X msg 20 393 open \$1;
#X obj 20 422 readsf~ 2;
#X obj 20 457 *~ 0;
#X obj 90 456 *~ 0.1;
#X obj 279 438 0;
#X obj 309 439 0.1;
#X obj 201 438 1;
#X obj 235 438 0;
#X text 90 359 start/stop sound file, f 10;
#X text 218 364 toggle on = sound file \, off = sine;
#X text -1 302 ----mdeGranular~ input: sound file \, sine \, static
buffer----;
#X text -1 724 ----listen to input----;
#X text 200 810 amplitude;
#X obj 21 831 *~ 0;
#X obj 84 830 *~ 0;
#X text 182 89 object arguments: number of streams/voices \, output
channels object inlets:;
#X text 181 119 1: live signal \, on/off \, bang \, semitones ...;
#X text 181 135 2: semitone offset;
#X text 181 170 4: grain length deviation (%);
#X text 182 187 5: buffer start (ms);
#X text 182 204 6: buffer end (ms);
#X text 182 221 7: grain density (%);
#X text 182 238 8: grain amplitude;
#X text 181 152 3: grain length (ms);
#X obj 482 317 loadbang;
#X obj 482 343 0;
#X text 9 32 see https://github.com/mdedwards/mdeGranular/wiki for
full documentation, f 73;
#X connect 2 0 4 0;
#X connect 3 0 2 0;
#X connect 4 0 1 0;
#X connect 6 0 29 0;
#X connect 13 0 39 0;
#X connect 13 0 40 0;
#X connect 14 0 13 0;
#X connect 15 0 13 0;
#X connect 16 0 39 1;
#X connect 16 0 40 1;
#X connect 17 0 26 0;
#X connect 18 0 17 0;
#X connect 20 0 27 0;
#X connect 21 0 27 0;
#X connect 23 0 39 0;
#X connect 23 0 40 0;
#X connect 24 0 25 0;
#X connect 25 0 32 0;
#X connect 25 0 33 0;
#X connect 25 1 30 0;
#X connect 25 1 31 0;
#X connect 26 0 27 0;
#X connect 27 0 28 0;
#X connect 27 1 28 0;
#X connect 28 0 22 0;
#X connect 29 0 22 0;
#X connect 30 0 28 1;
#X connect 31 0 29 1;
#X connect 32 0 28 1;
#X connect 33 0 29 1;
#X connect 39 0 12 0;
#X connect 40 0 12 1;
#X connect 50 0 51 0;
#X connect 51 0 24 0;
